<?xml version="1.0" encoding="utf-8"?>
<!-- Generator: Adobe Illustrator 25.2.3, SVG Export Plug-In . SVG Version: 6.00 Build 0)  -->
<svg version="1.1" id="Camada_1" xmlns="http://www.w3.org/2000/svg" xmlns:xlink="http://www.w3.org/1999/xlink" x="0px" y="0px"
	 viewBox="0 0 1366 260" style="enable-background:new 0 0 1366 260;" xml:space="preserve">
<style type="text/css">
	.st0{fill:#FF385C;}
	.st1{fill:none;}
	.st2{fill:#F7F7F7;}
</style>
<path class="st0" d="M1056,50c10.9,0,21.1,1.2,30.7,3.6c9.6,2.4,17.3,5.6,23.2,9.6c5.9,4,8.9,8.2,8.9,12.5c0,1.7-0.7,3.3-2,4.9
	c-1.3,1.6-3,2.4-4.9,2.4c-2.7,0-4.8-0.7-6.4-2.2c-1.6-1.5-3.2-3.2-4.9-5.3c-1.7-2.1-4.4-3.9-8-5.6c-3.4-1.7-8.2-3.1-14.3-4.4
	c-6.2-1.2-13.7-1.8-22.7-1.8c-14,0-26.9,3.6-38.5,10.9c-11.6,7.3-20.9,17-27.8,29.2c-6.9,12.2-10.4,26-10.4,41.2
	c0,15.5,3.2,29.4,9.6,41.8c6.4,12.4,15.4,22.1,26.9,29.2c11.5,7.1,24.9,10.7,40.1,10.7c10.9,0,19.2-1,24.9-3.1
	c5.7-2.1,10.6-4.3,14.7-6.7c5.1-2.9,8.6-5.7,10.5-8.4c1.9-2.7,4.2-4,6.9-4c1.9,0,3.4,0.6,4.5,1.8c1.1,1.2,1.6,2.8,1.6,4.7
	c0,2.9-2.7,6.7-8,11.4c-5.3,4.7-12.8,8.9-22.3,12.5c-9.6,3.6-20.9,5.4-34,5.4c-17.7,0-33.3-4.2-46.9-12.5
	c-13.6-8.4-24.2-19.7-31.8-34.1c-7.6-14.4-11.4-30.7-11.4-48.9c0-16.9,3.8-32.6,11.4-47c7.6-14.4,18.3-26,32-34.9
	C1021.5,54.5,1037.6,50,1056,50z"/>
<path class="st0" d="M1308,145.6c0,17.9-3.9,34.1-11.6,48.5c-7.8,14.4-18.3,25.8-31.8,34.1c-13.4,8.4-28.8,12.5-46,12.5
	c-17,0-32.2-4.2-45.8-12.5c-13.6-8.4-24.3-19.7-32.1-34.1c-7.9-14.4-11.8-30.6-11.8-48.5c0-18.2,3.9-34.4,11.8-48.9
	c7.9-14.4,18.6-25.8,32.1-34.1c13.6-8.4,28.8-12.5,45.8-12.5c17.2,0,32.5,4.2,46,12.5s24,19.7,31.8,34.1
	C1304.1,111.1,1308,127.4,1308,145.6z M1293.5,145.6c0-15.7-3.2-29.7-9.6-42c-6.4-12.2-15.3-21.9-26.5-29.1
	c-11.3-7.1-24.2-10.7-38.7-10.7c-14.3,0-27.1,3.6-38.5,10.7c-11.4,7.1-20.3,16.8-26.9,29.1c-6.5,12.2-9.8,26.2-9.8,42
	c0,15.5,3.3,29.4,9.8,41.6c6.5,12.2,15.5,21.9,26.9,29.1c11.4,7.1,24.2,10.7,38.5,10.7c14.5,0,27.4-3.6,38.7-10.7
	c11.3-7.1,20.1-16.8,26.5-29.1C1290.3,174.9,1293.5,161.1,1293.5,145.6z"/>
<circle class="st0" cx="951.5" cy="228.4" r="12.6"/>
<path class="st1" d="M221,159.1c0.1,0.7,0.2,1.3,0.3,1.9C221.2,160.4,221.2,159.8,221,159.1C221.1,159.1,221.1,159.1,221,159.1z"/>
<path class="st1" d="M223.7,127.4c0,0.1,0,0.1-0.1,0.2c0.1-0.2,0.2-0.5,0.2-0.7C223.9,127.1,223.8,127.2,223.7,127.4z"/>
<path class="st2" d="M934.6,72.5c-1-5.8-4.4-9.7-9.9-11.9c-2.4-0.9-4.9-1.2-7.5-1c-4.9,0.3-9,2.1-12.1,6.1
	c-2.5,3.2-3.5,6.9-3.5,10.9c0,25.9,0,51.8,0,77.7c0,1.6-0.1,3.1-0.2,4.7c-0.4,6.2-1.3,12.3-3.2,18.2c-2.2,7-5.7,13.3-10.9,18.5
	c-6.9,7-15.3,11.1-24.8,13.2c-6.5,1.4-13.1,1.9-19.7,1.6c-5-0.2-9.9-0.7-14.7-1.9c-9.8-2.4-18.3-7.1-24.9-14.7
	c-5.8-6.7-9.1-14.6-10.9-23.2c-1.3-6.3-1.7-12.7-1.7-19.1c0-14.5,0-29,0-43.5c0-10.6,0-21.1,0-31.7c0-8.6-5.7-15.7-14.5-16.5
	c-6.4-0.6-11.8,1.4-15.7,6.6c-2.3,3.1-3.1,6.6-3.1,10.4c0,24.9,0,49.9,0,74.8c0,3.7,0.1,7.5,0.3,11.2c0.5,8.9,2.1,17.7,5,26.1
	c6.9,20.1,19.8,34.7,39,43.8c10.7,5.1,22.2,7.5,34,8.3c8.7,0.6,17.5,0.5,26.2-0.5c8.8-1,17.3-3,25.5-6.4
	c14.2-5.9,25.8-15.1,34.1-28.1c8.1-12.7,11.9-26.7,13-41.7c0-0.6,0.2-1.3,0.3-1.9c0-29.7,0-59.5,0-89.2
	C934.7,73,934.6,72.7,934.6,72.5z"/>
<path class="st2" d="M660.1,212.4c-2.1-0.7-4.3-0.9-6.6-0.9c-8,0-15.9-0.9-23.6-3.6c-13.1-4.7-22.4-13.4-27.6-26.3
	c-3.3-8.2-4.6-16.9-4.6-25.7c-0.1-21.6,0-43.2,0-64.8c0-0.5,0-1.1,0-1.8c0.8,0,1.4,0,2,0c8.7,0,17.3-0.1,26,0
	c7.4,0.1,13.6-5.5,14-12.9c0.3-5.9-1.9-10.5-7-13.7c-2.4-1.5-5.2-1.9-8-1.9c-8.3,0-16.7,0-25,0c-0.6,0-1.2,0-1.9,0c0-0.8,0-1.4,0-2
	c0-7.7,0-15.5,0-23.2c0-1.7-0.1-3.4-0.5-5c-1.5-6.5-5.5-10.6-12-12.2c-0.6-0.2-1.3-0.3-1.9-0.4c-1.6,0-3.2,0-4.9,0
	c-0.2,0.1-0.3,0.2-0.5,0.3c-5.3,0.8-9.2,3.7-11.8,8.3c-1.5,2.7-2,5.6-2,8.6c0,8,0,16,0,24c0,0.5,0,1.1-0.1,1.5
	c-1.7,0.3-3.3,0.3-4.8,0.7c-8.2,2.3-12.8,10.2-10,18.3c1.9,5.4,7.4,9.4,13.2,9.6c0.5,0,1.1,0.1,1.7,0.1c0,0.8,0,1.4,0,2
	c0,20.2,0,40.4,0,60.7c0,5.1,0.1,10.1,0.6,15.1c0.8,8.2,2.4,16.2,5.2,23.9c4.5,12.4,11.6,23.1,21.7,31.6
	c12.1,10.3,26.3,15.8,41.9,18.1c4.7,0.7,9.5,1.1,14.3,1.4c3.3,0.2,6.6,0.3,9.8-0.1c7-0.9,12.1-5.9,12.9-12.9
	C671.5,221.1,666.6,214.7,660.1,212.4z"/>
<path class="st2" d="M169.1,212c-1.9-0.5-3.8-0.5-5.7-0.5c-7.6,0-15.1-0.9-22.4-3.4c-11.8-4-20.8-11.3-26.5-22.4
	c-4-7.8-5.8-16.3-6.3-25c-0.2-4.1-0.3-8.2-0.3-12.3c0-19.1,0-38.1,0-57.2c0-0.6,0-1.3,0.1-2c0.7,0,1.3,0,1.8,0c8.4,0,16.9,0,25.3,0
	c2.8,0,5.5-0.5,7.9-2.1c4.8-3.2,6.8-7.7,6.3-13.4c-0.5-6.1-5-11.4-10.9-12.6c-1.4-0.3-2.8-0.4-4.2-0.4c-8.1,0-16.3,0-24.4,0
	c-0.6,0-1.2,0-1.9,0c0-0.7,0-1.3,0-1.8c0-8,0-16.1,0-24.1c0-1.4-0.1-2.7-0.4-4.1c-1.5-6.6-5.5-10.8-12-12.4
	c-0.6-0.2-1.3-0.3-1.9-0.4c-1.6,0-3.2,0-4.9,0c-0.2,0.1-0.4,0.2-0.7,0.3c-7.9,1.2-13.6,7.9-13.6,16c0,8.3,0,16.6,0,24.8
	c0,0.5,0,1.1,0,1.7c-1.2,0.1-2.2,0.2-3.2,0.3c-5.5,0.4-11.5,5.1-12.6,10.8c-0.1,0.5-0.4,0.9-0.6,1.4c0,1.3,0,2.6,0,3.9
	c0.2,0.4,0.5,0.9,0.6,1.3c1.6,6.1,7.5,10.7,13.8,10.9c0.6,0,1.2,0,1.9,0c0,0.8,0,1.4,0,2c0,20.8,0,41.7,0,62.5
	c0,3.4,0.1,6.9,0.3,10.3c0.6,9.1,2.2,17.9,5.2,26.5c4.5,12.8,11.7,23.7,22.1,32.4c12.6,10.6,27.5,16,43.6,18.2
	c4.1,0.5,8.1,0.9,12.2,1.1c3.2,0.2,6.5,0.2,9.7-0.1c8.3-0.8,13.5-7.8,13.3-15.2C180.6,219.9,176,213.9,169.1,212z"/>
<path class="st2" d="M711.2,51.4c7.8-1.4,13.5-7.9,13.9-15.8c0.4-8-4.8-15.1-12.4-17.1c-0.7-0.2-1.4-0.4-2.1-0.6c-1.5,0-3,0-4.6,0
	c-0.6,0.2-1.1,0.3-1.7,0.5c-8.9,2.2-14.4,10.9-12.5,20C693.5,47.2,702.2,53,711.2,51.4z"/>
<path class="st2" d="M469.8,158c-2-2.5-3.9-5-5.9-7.6c0.3-0.4,0.6-0.8,0.9-1.2c15.1-19.3,30.1-38.6,45.2-57.9c1.6-2,3.2-4,4.7-6.1
	c2.4-3.4,3.5-7.2,2.8-11.3c-2.1-12.3-14.7-15.3-22.3-11.6c-3,1.5-5.4,3.7-7.4,6.4c-14,18.7-28,37.4-42.1,56
	c-0.3,0.4-0.7,0.8-1.1,1.4c-0.6-0.8-1.1-1.4-1.6-2c-14.8-18.9-29.6-37.7-44.4-56.6c-4-5.1-9.3-7.4-15.9-6.4
	c-9,1.4-16.2,9.9-13.8,20.4c0.6,2.7,2.2,4.8,3.9,7c16.7,21.2,33.4,42.4,50.1,63.7c0.2,0.3,0.4,0.7,0.6,1c-0.3,0.4-0.5,0.7-0.8,1
	c-16.2,20.5-32.5,41-48.7,61.5c-1,1.2-1.9,2.5-2.6,3.9c-2.4,4.7-2.7,9.5-0.2,14.2c1.6,3,4.2,4.9,7.1,6.4c7,3.7,15.4,1.9,20.3-4.3
	c14.6-18.7,29.2-37.5,43.8-56.2c0.3-0.4,0.6-0.8,1.1-1.3c0.4,0.4,0.6,0.7,0.8,1c9.3,11.8,18.6,23.7,27.9,35.5
	c5.5,7,10.9,13.9,16.4,20.9c1.8,2.3,4,4.1,6.6,5.3c7,3.2,15.1,0.9,19.8-5.5c4.2-5.7,4.2-14.3-0.7-20.6
	C499.5,196,484.7,177,469.8,158z"/>
<path class="st2" d="M725.1,78.4c0-0.6,0-1.2,0-1.8c-0.2-7.7-6.3-15.2-14.6-16c-5.9-0.6-11,1-15,5.6c-2.9,3.3-4.1,7.2-4.1,11.6
	c0,49,0,98.1,0,147.1c0,0.3,0,0.5,0,0.8c0.1,4.5,1.7,8.4,4.8,11.6c3.5,3.6,7.8,5.1,12.7,4.9c4.6-0.1,8.5-1.8,11.7-5.3
	c3.2-3.4,4.5-7.5,4.5-12.2c0-24.5,0-48.9,0-73.4C725.1,127,725.1,102.7,725.1,78.4z"/>
<path class="st2" d="M221.3,161.1c0.6,4.6,1.5,9.1,3.1,13.4c-0.8-2.4-1.5-4.8-2-7.3C221.9,165.2,221.6,163.2,221.3,161.1z"/>
<path class="st2" d="M223.9,126.9c0.3-1.1,0.7-2.2,1.1-3.2C224.6,124.8,224.3,125.8,223.9,126.9z"/>
<path class="st2" d="M352.4,141.6c-0.3-5.3-0.8-10.6-1.9-15.8c-2.1-10.6-6.3-20.3-12.3-29.3c-8-12-18.3-21.5-31.3-27.9
	c-15.8-7.7-32.5-10-49.8-6.9c-15.9,2.8-29.6,10-41.1,21.3c-14.9,14.6-23.3,32.6-25.9,53.2c-0.9,6.7-1.2,13.5-1,20.3
	c0.2,7.3,1,14.5,2.8,21.6c7.5,28.6,25.1,48.3,52.7,58.8c11,4.2,22.6,5.7,34.4,5.7c9.4,0,18.6-1.5,27.5-4.8
	c13.6-5,25.4-12.7,35.2-23.4c3.3-3.6,4.9-7.9,4-12.8c-1.4-7.8-8.9-12.8-16.7-11.4c-3.1,0.6-5.9,1.8-8.3,3.9
	c-2.5,2.2-4.9,4.6-7.5,6.6c-5.7,4.6-12.2,7.8-19.3,9.6c-9.5,2.4-19,2.4-28.6,0.6c-11.4-2.2-21-7.7-28.9-16.2
	c-5.6-6-9.5-12.8-12.1-20.3c-1.5-4.3-2.5-8.7-3.1-13.4c-0.1-0.6-0.2-1.3-0.3-1.9c0,0,0.1,0,0.1,0c-0.3-3.3-0.5-6.6-0.5-10
	c0-7.6,1-14.7,3.1-21.5c0-0.1,0-0.1,0.1-0.2c0.1-0.2,0.1-0.3,0.2-0.5c0.3-1.1,0.7-2.2,1.1-3.2c2.1-5.8,4.9-11.3,9-16
	c6.7-7.9,15.2-12.9,25.3-15.2c15.4-3.5,29.5-0.5,42.2,8.9c6.7,5,11.9,11.4,14.7,19.4c0.9,2.6,1.4,5.4,2,8.1c0.1,0.4,0.1,0.8,0.1,1.4
	c-26.3,0-27.7,0-53.7,0v0c-3.9,0-7.8,0-11.7,0c-2.8,0-5.6,0.7-8,2.3c-4.8,3.2-6.8,7.7-6.3,13.4c0.5,6.1,5,11.4,10.9,12.6
	c1.4,0.3,2.8,0.7,4.2,0.7c3.6,0,7.2,0,10.7,0l0,0c0,0,0.1,0,0.1,0c0,0,0,0,0,0l0,0c32,0,38.8-0.1,70.8-0.1c0.6,0,1.2,0,1.8,0
	c6.3-0.6,11-3.6,13.8-9.2C352.3,147.3,352.5,144.5,352.4,141.6z"/>
</svg>
